<?xml version="1.0" ?><svg viewBox="0 0 256 256" xmlns="http://www.w3.org/2000/svg"><rect fill="none" height="256" width="256"/><line fill="none" stroke="#000" stroke-linecap="round" stroke-linejoin="round" stroke-width="16" x1="88" x2="168" y1="232" y2="232"/><path d="M78.7,167A79.5,79.5,0,0,1,48,104.5C47.8,61.1,82.7,25,126.1,24a80,80,0,0,1,51.3,142.9A24.2,24.2,0,0,0,168,186v6a8,8,0,0,1-8,8H96a8,8,0,0,1-8-8v-6A24.4,24.4,0,0,0,78.7,167Z" fill="none" stroke="#000" stroke-linecap="round" stroke-linejoin="round" stroke-width="16"/><path d="M136.1,56.8a47.9,47.9,0,0,1,39.2,39.1" fill="none" stroke="#000" stroke-linecap="round" stroke-linejoin="round" stroke-width="16"/></svg>